<svg id="hipoLogoSVG2" width="100px" height="50px" viewBox="0 0 41 30" preserveAspectRatio="xMidYMid meet">
			<path id="" fill="none" stroke="#E31C37" stroke-width="1" stroke-linecap="round" stroke-linejoin="round" stroke-miterlimit="1" d="M7.62,20.918
				c-1.751,0-1.988-0.188-2.13-0.455c-0.164-0.307-0.082-0.709,0.137-1.672c0.151-0.664,0.334-1.471,0.377-2.187
				c-2.208-1.195-3.76-2.911-4.384-4.86c-0.655-2.051-0.117-3.292,0.403-4.49l0.111-0.259c0.095-0.227,0.21-0.421,0.316-0.6
				c0.153-0.257,0.232-0.397,0.214-0.531C2.605,5.786,2.194,5.628,1.949,5.534c-0.6-0.23-1.28-0.491-1.418-1.137
				c-0.077-0.36-0.007-0.71,0.194-0.959c0.178-0.22,0.439-0.341,0.736-0.341c0.251,0,0.523,0.086,0.808,0.257
				c0.181,0.108,0.338,0.21,0.479,0.302c0.414,0.267,0.606,0.386,0.838,0.386c0.034,0,0.068-0.002,0.104-0.007
				c0.123-0.016,0.19-0.072,0.402-0.286c0.06-0.061,0.123-0.124,0.192-0.189c0.581-0.544,1.274-0.964,2.248-1.361
				c1.531-0.622,2.597-0.714,4.532-0.881l0.109-0.009c0.19-0.017,0.423-0.044,0.679-0.073c0.645-0.074,1.448-0.166,2.122-0.166
				c0.101,0,0.5,0.01,0.5,0.01c0.239,0,0.565-0.009,0.949-0.02c0.563-0.016,1.249-0.035,1.971-0.035c1.683,0,2.941,0.106,3.844,0.325
				c0.528,0.13,1.293,0.466,1.666,0.678c0.214,0.01,0.438,0.014,0.668,0.014c0.249,0,1.305-0.017,1.574-0.017
				c0.775,0,1.555,0.035,2.225,0.217c-0.165-0.388-0.288-0.803-0.099-1.196C27.44,0.698,27.771,0.5,28.18,0.5
				c0.463,0,1.058,0.284,1.211,0.743c0.049,0.163,0.057,0.348,0.044,0.585c0.078-0.094,0.173-0.177,0.289-0.24
				c0.25-0.132,0.538-0.205,0.814-0.205c0.577,0,1.001,0.316,1.105,0.826c0.105,0.54-0.394,0.841-0.795,1.083
				c-0.775,0.469-0.795,0.615-0.653,0.884c0.154,0.293,1.332,1.231,1.983,1.622c0.15,0.093,0.35,0.162,0.561,0.235
				c0.205,0.071,0.411,0.145,0.599,0.239c0.68,0.339,2.255,0.65,3.195,0.836c0.386,0.076,0.69,0.137,0.842,0.179
				c0.834,0.229,1.345,0.58,1.883,1.292c0.592,0.788,0.798,3.564,0.192,4.923c-0.423,0.942-0.601,1.167-1.181,1.715
				c-0.608,0.574-2.231,0.831-3.57,0.831c-0.692,0-1.994-0.072-2.937-0.557c-0.676-0.349-1.435-0.822-2.104-1.241
				c-0.247-0.154-0.485-0.303-0.708-0.438c-0.01,0.093-0.013,0.198-0.015,0.324c-0.006,0.317-0.014,0.713-0.188,1.162
				c-0.237,0.611-0.799,0.871-1.251,1.08c-0.293,0.135-0.552,0.255-0.715,0.437c0.029,0.484,0.146,1.152,0.241,1.7
				c0.178,1.013,0.219,1.288,0.088,1.529c-0.104,0.205-0.255,0.499-3.62,0.499c-1.341,0-1.503-0.096-1.621-0.165
				c-0.479-0.288-0.296-0.85-0.02-1.699c0.146-0.45,0.536-1.646,0.344-1.87c-0.197-0.23-0.462-0.329-0.887-0.329
				c-0.447,0-1.015,0.11-1.672,0.239c-0.951,0.186-2.134,0.417-3.512,0.417c-0.001,0-0.002,0-0.004,0
				c-0.016,0.49,0.213,1.309,0.348,1.79c0.196,0.7,0.272,0.995,0.176,1.259c-0.099,0.272-0.222,0.611-2.995,0.611
				c-1.79,0-1.959-0.154-2.083-0.267c-0.293-0.281-0.224-0.669-0.071-1.519c0.077-0.425,0.221-1.228,0.183-1.656
				c-0.16,0.003-0.343,0.02-0.528,0.035c-0.125,0.011-0.25,0.021-0.371,0.029c0.035,0.479,0.105,1.049,0.165,1.532
				c0.081,0.663,0.12,0.989,0.106,1.172C11.025,20.46,10.991,20.918,7.62,20.918z"></path>
		</svg>